<svg version="1.1" id="Layer_1" xmlns="http://www.w3.org/2000/svg" x="0" y="0" viewBox="0 0 80.5 124.8" xml:space="preserve"><path fill-rule="evenodd" clip-rule="evenodd" fill="#E54344" d="M4.2 43.4c0 24.8 31 39.7 36 75 5-35.3 36-50.2 36-75s-16.1-39-36-39-36 14.1-36 39zm22-5.5c0-7.5 6-13.5 13.5-13.5s13.5 6 13.5 13.5-6 13.5-13.5 13.5-13.5-6.1-13.5-13.5z"/><path fill-rule="evenodd" clip-rule="evenodd" fill="#FFF" d="M50.1 37.7c0 6.3-5.3 10.5-10.5 10.5-6.5 0-10.3-5.3-10.3-10.5 0-5.8 4.5-10.3 10.3-10.3 6.5.1 10.5 5.1 10.5 10.3zm3 0c0 8-6.3 13.5-13.5 13.5-7.8 0-13.3-6.3-13.3-13.5 0-7.8 6-13.3 13.3-13.3 7.8.1 13.5 6.1 13.5 13.3zm23 5c0 19-16.5 31.5-28.3 52.3-1.3 2.3-2.8 5.3-3.8 8-1.8 4.3-3 10-4 14.5-.3-2.5-1-5.5-1.8-8-.8-2.8-1.8-5.5-2.8-7.8-2.5-6.5-7-13.5-11.8-20-6.5-9.5-19.2-25-19.2-35.7v-6.3C5.6 16 22.4 4.5 40.1 4.5c24 0 36 18.5 36 38.2zm3 0c0 5-.8 10-3.3 15-8.5 17.3-27.3 35-31 52.5-.8 3-1.3 6.3-2.3 9.5-.3.8-1.8 1.5-2.5 1.5-.5 0-2.3-.8-2.5-1.5-.8-2.8-1.3-6-2-8.5-.5-2.5-1.5-5.3-2.5-7.5-2-5.3-5.8-11.8-9.3-16.8-7.8-11.8-19-24-21.8-35.8-.3-1.5-.8-3.8-.8-4.3v-8.5c3-25.8 19.5-37 38.8-37 25.5.2 39.2 19.7 39.2 41.4z"/></svg>