<svg xmlns="http://www.w3.org/2000/svg"><symbol id="icon-facebook" viewBox="0 0 97.2 97.7"><path fill-rule="evenodd" clip-rule="evenodd" fill="#1F2020" d="M.5 49.2c0 26.5 21.6 48 48.2 48s48.2-21.5 48.2-48-21.6-48-48.2-48S.5 22.7.5 49.2zM60.7 24v7.2h-7.6c-.5-.1-1.4 1.1-1.4 1.7v7.3h9v9h-9v24h-9v-24h-6v-9h6v-7c0-3 2.3-9.4 8.4-9.2h9.6z"/></symbol><symbol id="icon-instagram" viewBox="0 0 98.3 96.7"><path fill-rule="evenodd" clip-rule="evenodd" fill="#1F2020" d="M49.1 66.8h15.1c2.8-.1 5.7-1.1 5.7-7.3V48.8H59.7v.4c0 6-4.6 10.6-10.4 10.7h-.2c-5.8-.2-10.4-4.8-10.4-10.7v-.4H28.5v10.7c0 6.2 2.8 7.2 5.7 7.3h14.9zm10.5-29.7c0 1.8 1.4 3.2 3.2 3.2 1.8 0 3.2-1.4 3.2-3.2s-1.4-3.2-3.2-3.2c-1.7 0-3.2 1.4-3.2 3.2zM1.2 48.5c0 26.5 21.5 48 48 48s48-21.5 48-48-21.5-48-48-48-48 21.5-48 48zm31.5 21.1c-3.2 0-7.3-2.6-7.2-9.8v-23c.2-.6-.5-9.3 8.9-9.4H64c9.4.1 8.7 8.8 8.9 9.4v23c.1 7.2-4 9.8-7.2 9.8-1.9.2-14.4.1-16.5 0-2.2 0-14.6.1-16.5 0z"/></symbol><symbol id="icon-search" viewBox="0 0 66.4 66.4"><path fill-rule="evenodd" clip-rule="evenodd" fill="#222" d="M28.9 13.1c9.5 0 17.1 7.7 17.1 17.3s-7.7 17.3-17.1 17.3c-9.5 0-17.1-7.7-17.1-17.3s7.6-17.3 17.1-17.3zm0-9.6c-14.8 0-26.7 12-26.7 26.9s11.9 26.9 26.7 26.9c14.8 0 26.7-12 26.7-26.9S43.6 3.5 28.9 3.5zm23.3 53.3l8.1 8.1 3.2-3.3-8.1-8.1-3.2 3.3z"/></symbol><symbol id="icon-star" viewBox="0 0 77.9 73.1"><path fill-rule="evenodd" clip-rule="evenodd" fill="#222" d="M39.2.4l11.7 24.1 26.5 3.8-19.2 18.6 4.6 26.5-23.6-12.6-23.5 12.6 4.6-26.5L1.1 28.3l26.4-3.8z"/></symbol><symbol id="icon-telegram" viewBox="0 0 97.3 97.3"><path fill-rule="evenodd" clip-rule="evenodd" fill="#F37973" d="M48.9 96.4C75.5 96.4 97 75 97 48.6S75.5.9 48.9.9.7 22.2.7 48.6C.7 75 22.3 96.4 48.9 96.4zm24.4-70l-9.6 43.9s-8.6-7.1-12.5-9.7l-8.9 7.9 1.8-13.7 19.3-19.3-26.7 16.9-17.4-5 54-21z"/></symbol><symbol id="icon-whats-up" viewBox="0 0 97.7 97.2"><path fill-rule="evenodd" clip-rule="evenodd" fill="#F37973" d="M56.3 59.5c.5-.1 1-.2 1.5-.5 1.5-.8 2.6-2.1 3.4-3.6.4-.8.2-1.6-.6-2.2-.8-.6-1.6-1.2-2.4-1.7-.8-.6-1.7-1.1-2.5-1.7-.9-.5-1.9-.5-2.7.1-.8.6-1.2 1.9-2.3 2-.7.1-1.3-.2-1.9-.4-3.6-1.5-4.1-2.4-5.5-6-.2-.5-.2-1 .1-1.4l.6-.6c.3-.2.5-.4.8-.6 1.1-.7 1.3-2 .7-3.1-1-1.7-2.2-3.3-3.5-4.8-.6-.7-1.4-.9-2.3-.5-1.1.5-2.1 1.2-2.9 2.1-.8.9-1.6 2.2-1.1 3.5.6 1.4 1.2 2.8 1.8 4.1 1.4 2.8 3.1 5.5 5.3 7.8 3.8 4.1 6.7 4.9 11.9 7 .5.2 1 .3 1.6.5zm-7.1 37c26.6 0 48.2-21.4 48.2-47.8C97.3 22.4 75.8 1 49.2 1S1 22.4 1 48.7c0 26.4 21.6 47.8 48.2 47.8zm-7.6-72h15.2c10.3 0 16.5 4.8 16.5 14.7v14.3c0 9.8-8.3 13-18.6 13H41.2c.1 0-9.8 7.1-9.8 7.1s-.1-11.4 0-11.3c-3.8-3.3-6.3-3.7-6.3-9V40.2c0-9.8 6.2-15.7 16.5-15.7z"/></symbol></svg>